<svg width="543" height="233" viewBox="0 0 543 233" fill="none" xmlns="http://www.w3.org/2000/svg">
<path d="M46.0647 77.4421H29.7084V105.481H0V0H48.0675C57.7478 0 65.759 1.66901 72.7689 4.67323C79.7787 7.67745 85.1196 12.3507 89.1252 18.3591C92.797 24.3676 94.7998 31.0436 94.7998 39.0549C94.7998 46.7323 93.1308 53.4084 89.459 59.083C85.7872 64.7576 80.7801 69.0971 74.1041 72.4351L96.8026 105.481H64.7576L46.0647 77.4421ZM60.0844 27.7056C57.0802 24.7014 52.4069 23.3662 46.3985 23.3662H29.7084V54.076H46.3985C52.4069 54.076 57.0802 52.7407 60.0844 50.0703C63.0886 47.3999 64.7576 43.7281 64.7576 38.7211C64.7576 34.0478 63.0886 30.376 60.0844 27.7056Z" fill="#3A4180"/>
<path d="M188.263 82.4491V105.481H103.811V0H186.26V23.0324H133.185V40.7239H179.918V63.0886H133.185V82.4491H188.263Z" fill="#3A4180"/>
<path d="M268.041 84.7858H223.312L214.967 105.148H184.591L231.323 0H260.698L307.43 105.481H276.386L268.041 84.7858ZM259.362 62.7548L245.677 29.0408L231.991 62.7548H259.362Z" fill="#3A4180"/>
<path d="M308.098 0H337.807V81.7815H388.211V105.481H308.098V0Z" fill="#3A4180"/>
<path d="M105.82 229.322C97.8083 227.32 91.1323 224.315 86.1252 220.977L95.8055 198.946C100.479 201.951 106.153 204.621 112.162 206.624C118.504 208.627 124.512 209.628 130.521 209.628C141.87 209.628 147.545 206.624 147.545 200.949C147.545 197.945 145.876 195.608 142.538 194.273C139.2 192.938 134.193 191.269 126.849 189.6C118.838 187.931 112.162 185.928 106.821 184.259C101.48 182.256 96.8069 179.252 93.1351 174.913C89.4633 170.573 87.4605 164.899 87.4605 157.555C87.4605 151.213 89.1295 145.204 92.8013 140.197C96.4731 135.19 101.48 130.851 108.49 127.847C115.5 124.842 124.179 123.173 134.193 123.173C141.203 123.173 147.879 123.841 154.555 125.51C161.231 127.179 167.239 129.182 172.246 132.52L162.9 154.551C152.886 149.21 143.205 146.539 133.859 146.539C127.851 146.539 123.511 147.541 120.841 149.21C118.17 150.879 116.835 153.216 116.835 156.22C116.835 158.89 118.504 161.227 121.508 162.562C124.846 163.897 129.853 165.566 136.863 166.901C144.874 168.57 151.55 170.573 156.891 172.242C162.232 174.245 166.572 177.249 170.577 181.589C174.583 185.928 176.252 191.603 176.252 198.946C176.252 205.289 174.583 210.963 170.911 215.97C167.239 220.977 162.232 225.317 155.222 228.321C148.212 231.325 139.534 232.994 129.52 232.994C122.176 232.327 113.831 231.325 105.82 229.322Z" fill="#3A4180"/>
<path d="M204.292 148.542H171.913V124.843H266.379V148.542H234.334V230.324H204.626V148.542H204.292Z" fill="#3A4180"/>
<path d="M335.143 209.962H290.747L282.402 230.324H252.026L298.424 124.843H327.799L374.531 230.324H343.488L335.143 209.962ZM326.464 187.931L313.112 154.217L299.426 187.931H326.464Z" fill="#3A4180"/>
<path d="M392.553 148.542H360.174V124.843H454.64V148.542H422.595V230.324H392.886V148.542H392.553Z" fill="#3A4180"/>
<path d="M487.683 207.292V187.931H534.415V165.566H487.683V147.875H540.757V124.843H457.974V230.324H542.426V207.292H487.683ZM479.004 226.318C475.666 228.989 470.992 228.321 468.656 224.983C466.319 221.645 466.653 216.972 469.991 214.635C473.329 211.965 478.002 212.632 480.339 215.971C482.676 218.975 482.342 223.648 479.004 226.318Z" fill="#3A4180"/>
<path d="M29.3746 207.292V187.931H76.1069V165.566H29.3746V147.875H82.4491V124.843H0V230.324H84.4519V207.292H29.3746ZM46.3985 223.982C43.0605 226.652 38.3872 225.985 36.0506 222.647C33.714 219.309 34.0478 214.635 37.3858 212.299C40.7239 209.962 45.3971 210.296 47.7337 213.634C50.0703 216.972 49.4027 221.645 46.3985 223.982Z" fill="#3A4180"/>
</svg>
