<svg width="106" height="31" viewBox="0 0 106 31" fill="none" xmlns="http://www.w3.org/2000/svg">
<path d="M6.79688 24H2.04688L2.07812 21.5469H6.79688C8.42188 21.5469 9.77604 21.2083 10.8594 20.5312C11.9427 19.8438 12.7552 18.8854 13.2969 17.6562C13.849 16.4167 14.125 14.9688 14.125 13.3125V11.9219C14.125 10.6198 13.9688 9.46354 13.6562 8.45312C13.3438 7.43229 12.8854 6.57292 12.2812 5.875C11.6771 5.16667 10.9375 4.63021 10.0625 4.26562C9.19792 3.90104 8.20312 3.71875 7.07812 3.71875H1.95312V1.25H7.07812C8.56771 1.25 9.92708 1.5 11.1562 2C12.3854 2.48958 13.4427 3.20312 14.3281 4.14062C15.224 5.06771 15.9115 6.19271 16.3906 7.51562C16.8698 8.82812 17.1094 10.3073 17.1094 11.9531V13.3125C17.1094 14.9583 16.8698 16.4427 16.3906 17.7656C15.9115 19.0781 15.2188 20.1979 14.3125 21.125C13.4167 22.0521 12.3333 22.7656 11.0625 23.2656C9.80208 23.7552 8.38021 24 6.79688 24ZM3.65625 1.25V24H0.640625V1.25H3.65625ZM31.1719 21.1094V12.4062C31.1719 11.7396 31.0365 11.1615 30.7656 10.6719C30.5052 10.1719 30.1094 9.78646 29.5781 9.51562C29.0469 9.24479 28.3906 9.10938 27.6094 9.10938C26.8802 9.10938 26.2396 9.23438 25.6875 9.48438C25.1458 9.73438 24.7188 10.0625 24.4062 10.4688C24.1042 10.875 23.9531 11.3125 23.9531 11.7812H21.0625C21.0625 11.1771 21.2188 10.5781 21.5312 9.98438C21.8438 9.39062 22.2917 8.85417 22.875 8.375C23.4688 7.88542 24.1771 7.5 25 7.21875C25.8333 6.92708 26.7604 6.78125 27.7812 6.78125C29.0104 6.78125 30.0938 6.98958 31.0312 7.40625C31.9792 7.82292 32.7188 8.45312 33.25 9.29688C33.7917 10.1302 34.0625 11.1771 34.0625 12.4375V20.3125C34.0625 20.875 34.1094 21.474 34.2031 22.1094C34.3073 22.7448 34.4583 23.2917 34.6562 23.75V24H31.6406C31.4948 23.6667 31.3802 23.224 31.2969 22.6719C31.2135 22.1094 31.1719 21.5885 31.1719 21.1094ZM31.6719 13.75L31.7031 15.7812H28.7812C27.9583 15.7812 27.224 15.849 26.5781 15.9844C25.9323 16.1094 25.3906 16.3021 24.9531 16.5625C24.5156 16.8229 24.1823 17.151 23.9531 17.5469C23.724 17.9323 23.6094 18.3854 23.6094 18.9062C23.6094 19.4375 23.7292 19.9219 23.9688 20.3594C24.2083 20.7969 24.5677 21.1458 25.0469 21.4062C25.5365 21.6562 26.1354 21.7812 26.8438 21.7812C27.7292 21.7812 28.5104 21.5938 29.1875 21.2188C29.8646 20.8438 30.401 20.3854 30.7969 19.8438C31.2031 19.3021 31.4219 18.776 31.4531 18.2656L32.6875 19.6562C32.6146 20.0938 32.4167 20.5781 32.0938 21.1094C31.7708 21.6406 31.3385 22.151 30.7969 22.6406C30.2656 23.1198 29.6302 23.5208 28.8906 23.8438C28.1615 24.1562 27.3385 24.3125 26.4219 24.3125C25.276 24.3125 24.2708 24.0885 23.4062 23.6406C22.5521 23.1927 21.8854 22.5938 21.4062 21.8438C20.9375 21.0833 20.7031 20.2344 20.7031 19.2969C20.7031 18.3906 20.8802 17.5938 21.2344 16.9062C21.5885 16.2083 22.099 15.6302 22.7656 15.1719C23.4323 14.7031 24.2344 14.349 25.1719 14.1094C26.1094 13.8698 27.1562 13.75 28.3125 13.75H31.6719ZM41.5 10.3438V30.5H38.5938V7.09375H41.25L41.5 10.3438ZM52.8906 15.4062V15.7344C52.8906 16.9635 52.7448 18.1042 52.4531 19.1562C52.1615 20.1979 51.7344 21.1042 51.1719 21.875C50.6198 22.6458 49.9375 23.2448 49.125 23.6719C48.3125 24.099 47.3802 24.3125 46.3281 24.3125C45.2552 24.3125 44.3073 24.1354 43.4844 23.7812C42.6615 23.4271 41.9635 22.9115 41.3906 22.2344C40.8177 21.5573 40.3594 20.7448 40.0156 19.7969C39.6823 18.849 39.4531 17.7812 39.3281 16.5938V14.8438C39.4531 13.5938 39.6875 12.474 40.0312 11.4844C40.375 10.4948 40.8281 9.65104 41.3906 8.95312C41.9635 8.24479 42.6562 7.70833 43.4688 7.34375C44.2812 6.96875 45.2188 6.78125 46.2812 6.78125C47.3438 6.78125 48.2865 6.98958 49.1094 7.40625C49.9323 7.8125 50.625 8.39583 51.1875 9.15625C51.75 9.91667 52.1719 10.8281 52.4531 11.8906C52.7448 12.9427 52.8906 14.1146 52.8906 15.4062ZM49.9844 15.7344V15.4062C49.9844 14.5625 49.8958 13.7708 49.7188 13.0312C49.5417 12.2812 49.2656 11.625 48.8906 11.0625C48.526 10.4896 48.0573 10.0417 47.4844 9.71875C46.9115 9.38542 46.2292 9.21875 45.4375 9.21875C44.7083 9.21875 44.0729 9.34375 43.5312 9.59375C43 9.84375 42.5469 10.1823 42.1719 10.6094C41.7969 11.026 41.4896 11.5052 41.25 12.0469C41.0208 12.5781 40.849 13.1302 40.7344 13.7031V17.75C40.9427 18.4792 41.2344 19.1667 41.6094 19.8125C41.9844 20.4479 42.4844 20.9635 43.1094 21.3594C43.7344 21.7448 44.5208 21.9375 45.4688 21.9375C46.25 21.9375 46.9219 21.776 47.4844 21.4531C48.0573 21.1198 48.526 20.6667 48.8906 20.0938C49.2656 19.5208 49.5417 18.8646 49.7188 18.125C49.8958 17.375 49.9844 16.5781 49.9844 15.7344ZM59.4688 10.3438V30.5H56.5625V7.09375H59.2188L59.4688 10.3438ZM70.8594 15.4062V15.7344C70.8594 16.9635 70.7135 18.1042 70.4219 19.1562C70.1302 20.1979 69.7031 21.1042 69.1406 21.875C68.5885 22.6458 67.9062 23.2448 67.0938 23.6719C66.2812 24.099 65.349 24.3125 64.2969 24.3125C63.224 24.3125 62.276 24.1354 61.4531 23.7812C60.6302 23.4271 59.9323 22.9115 59.3594 22.2344C58.7865 21.5573 58.3281 20.7448 57.9844 19.7969C57.651 18.849 57.4219 17.7812 57.2969 16.5938V14.8438C57.4219 13.5938 57.6562 12.474 58 11.4844C58.3438 10.4948 58.7969 9.65104 59.3594 8.95312C59.9323 8.24479 60.625 7.70833 61.4375 7.34375C62.25 6.96875 63.1875 6.78125 64.25 6.78125C65.3125 6.78125 66.2552 6.98958 67.0781 7.40625C67.901 7.8125 68.5938 8.39583 69.1562 9.15625C69.7188 9.91667 70.1406 10.8281 70.4219 11.8906C70.7135 12.9427 70.8594 14.1146 70.8594 15.4062ZM67.9531 15.7344V15.4062C67.9531 14.5625 67.8646 13.7708 67.6875 13.0312C67.5104 12.2812 67.2344 11.625 66.8594 11.0625C66.4948 10.4896 66.026 10.0417 65.4531 9.71875C64.8802 9.38542 64.1979 9.21875 63.4062 9.21875C62.6771 9.21875 62.0417 9.34375 61.5 9.59375C60.9688 9.84375 60.5156 10.1823 60.1406 10.6094C59.7656 11.026 59.4583 11.5052 59.2188 12.0469C58.9896 12.5781 58.8177 13.1302 58.7031 13.7031V17.75C58.9115 18.4792 59.2031 19.1667 59.5781 19.8125C59.9531 20.4479 60.4531 20.9635 61.0781 21.3594C61.7031 21.7448 62.4896 21.9375 63.4375 21.9375C64.2188 21.9375 64.8906 21.776 65.4531 21.4531C66.026 21.1198 66.4948 20.6667 66.8594 20.0938C67.2344 19.5208 67.5104 18.8646 67.6875 18.125C67.8646 17.375 67.9531 16.5781 67.9531 15.7344ZM84.5156 21.1094V12.4062C84.5156 11.7396 84.3802 11.1615 84.1094 10.6719C83.849 10.1719 83.4531 9.78646 82.9219 9.51562C82.3906 9.24479 81.7344 9.10938 80.9531 9.10938C80.224 9.10938 79.5833 9.23438 79.0312 9.48438C78.4896 9.73438 78.0625 10.0625 77.75 10.4688C77.4479 10.875 77.2969 11.3125 77.2969 11.7812H74.4062C74.4062 11.1771 74.5625 10.5781 74.875 9.98438C75.1875 9.39062 75.6354 8.85417 76.2188 8.375C76.8125 7.88542 77.5208 7.5 78.3438 7.21875C79.1771 6.92708 80.1042 6.78125 81.125 6.78125C82.3542 6.78125 83.4375 6.98958 84.375 7.40625C85.3229 7.82292 86.0625 8.45312 86.5938 9.29688C87.1354 10.1302 87.4062 11.1771 87.4062 12.4375V20.3125C87.4062 20.875 87.4531 21.474 87.5469 22.1094C87.651 22.7448 87.8021 23.2917 88 23.75V24H84.9844C84.8385 23.6667 84.724 23.224 84.6406 22.6719C84.5573 22.1094 84.5156 21.5885 84.5156 21.1094ZM85.0156 13.75L85.0469 15.7812H82.125C81.3021 15.7812 80.5677 15.849 79.9219 15.9844C79.276 16.1094 78.7344 16.3021 78.2969 16.5625C77.8594 16.8229 77.526 17.151 77.2969 17.5469C77.0677 17.9323 76.9531 18.3854 76.9531 18.9062C76.9531 19.4375 77.0729 19.9219 77.3125 20.3594C77.5521 20.7969 77.9115 21.1458 78.3906 21.4062C78.8802 21.6562 79.4792 21.7812 80.1875 21.7812C81.0729 21.7812 81.8542 21.5938 82.5312 21.2188C83.2083 20.8438 83.7448 20.3854 84.1406 19.8438C84.5469 19.3021 84.7656 18.776 84.7969 18.2656L86.0312 19.6562C85.9583 20.0938 85.7604 20.5781 85.4375 21.1094C85.1146 21.6406 84.6823 22.151 84.1406 22.6406C83.6094 23.1198 82.974 23.5208 82.2344 23.8438C81.5052 24.1562 80.6823 24.3125 79.7656 24.3125C78.6198 24.3125 77.6146 24.0885 76.75 23.6406C75.8958 23.1927 75.2292 22.5938 74.75 21.8438C74.2812 21.0833 74.0469 20.2344 74.0469 19.2969C74.0469 18.3906 74.224 17.5938 74.5781 16.9062C74.9323 16.2083 75.4427 15.6302 76.1094 15.1719C76.776 14.7031 77.5781 14.349 78.5156 14.1094C79.4531 13.8698 80.5 13.75 81.6562 13.75H85.0156ZM102.609 20.7188V0H105.516V24H102.859L102.609 20.7188ZM91.2344 15.7344V15.4062C91.2344 14.1146 91.3906 12.9427 91.7031 11.8906C92.026 10.8281 92.4792 9.91667 93.0625 9.15625C93.6562 8.39583 94.3594 7.8125 95.1719 7.40625C95.9948 6.98958 96.9115 6.78125 97.9219 6.78125C98.9844 6.78125 99.9115 6.96875 100.703 7.34375C101.505 7.70833 102.182 8.24479 102.734 8.95312C103.297 9.65104 103.74 10.4948 104.062 11.4844C104.385 12.474 104.609 13.5938 104.734 14.8438V16.2812C104.62 17.5208 104.396 18.6354 104.062 19.625C103.74 20.6146 103.297 21.4583 102.734 22.1562C102.182 22.8542 101.505 23.3906 100.703 23.7656C99.901 24.1302 98.9635 24.3125 97.8906 24.3125C96.901 24.3125 95.9948 24.099 95.1719 23.6719C94.3594 23.2448 93.6562 22.6458 93.0625 21.875C92.4792 21.1042 92.026 20.1979 91.7031 19.1562C91.3906 18.1042 91.2344 16.9635 91.2344 15.7344ZM94.1406 15.4062V15.7344C94.1406 16.5781 94.224 17.3698 94.3906 18.1094C94.5677 18.849 94.8385 19.5 95.2031 20.0625C95.5677 20.625 96.0312 21.0677 96.5938 21.3906C97.1562 21.7031 97.8281 21.8594 98.6094 21.8594C99.5677 21.8594 100.354 21.6562 100.969 21.25C101.594 20.8438 102.094 20.3073 102.469 19.6406C102.844 18.974 103.135 18.25 103.344 17.4688V13.7031C103.219 13.1302 103.036 12.5781 102.797 12.0469C102.568 11.5052 102.266 11.026 101.891 10.6094C101.526 10.1823 101.073 9.84375 100.531 9.59375C100 9.34375 99.3698 9.21875 98.6406 9.21875C97.849 9.21875 97.1667 9.38542 96.5938 9.71875C96.0312 10.0417 95.5677 10.4896 95.2031 11.0625C94.8385 11.625 94.5677 12.2812 94.3906 13.0312C94.224 13.7708 94.1406 14.5625 94.1406 15.4062Z" fill="white"/>
</svg>
