<svg xmlns="http://www.w3.org/2000/svg" width="94" height="31"><path d="M39.047 15.256h-2.865v-1.658h7.629v1.658h-2.866V22h-1.898v-6.744zm13.588-.615c.785.779 1.178 1.828 1.178 3.158 0 1.33-.393 2.379-1.178 3.152-.785.78-1.846 1.166-3.182 1.166-1.336 0-2.396-.387-3.176-1.166-.785-.773-1.177-1.822-1.177-3.152s.392-2.38 1.177-3.158c.78-.774 1.84-1.16 3.176-1.16s2.397.386 3.182 1.16zm-1.424 5.056c.416-.498.621-1.13.621-1.898s-.205-1.395-.621-1.893c-.416-.498-1.002-.744-1.752-.744-.756 0-1.336.246-1.752.744-.416.498-.627 1.125-.627 1.893 0 .767.211 1.4.627 1.898.416.498.996.744 1.752.744.75 0 1.336-.246 1.752-.744zm10.225-6.1h2.255l-3.41 4.167L63.88 22h-2.256l-3.492-4.143V22h-1.893v-8.402h1.893v4.06l3.305-4.06zM72.475 22H65.59v-8.402h6.885v1.6h-4.993v1.728h4.213v1.535h-4.213v1.945h4.993V22zm10.447 0h-2.854l-3.023-5.578-.387-1.072h-.181l.263 1.072V22h-1.892v-8.402H77.7l3.024 5.584.386 1.066h.182l-.264-1.066v-5.584h1.893V22zm6.07 0h-3.404v-8.402h3.404c1.365 0 2.432.369 3.2 1.107.767.744 1.148 1.775 1.148 3.094 0 1.318-.381 2.35-1.143 3.088C91.43 21.63 90.363 22 88.992 22zm-1.512-1.658h1.512c.762 0 1.348-.235 1.758-.697.404-.463.61-1.079.61-1.846 0-.768-.206-1.383-.61-1.846-.41-.463-.996-.697-1.758-.697H87.48v5.086z" fill="#c2185b" fill-rule="evenodd"/></svg>
