<svg xmlns="http://www.w3.org/2000/svg" width="94" height="31"><path fill-rule="nonzero" d="M.917 8.743v13.514c0 .138.065.27.177.355l9.691 7.394c.167.127.4.126.565-.002l9.559-7.39a.447.447 0 0 0 .174-.354V8.74a.447.447 0 0 0-.174-.354L11.35.996a.465.465 0 0 0-.565-.002L1.094 8.388a.447.447 0 0 0-.177.355zM.53 7.678L10.223.284a1.397 1.397 0 0 1 1.694.005l9.559 7.39c.33.257.524.647.524 1.06V22.26c0 .414-.193.804-.524 1.06l-9.559 7.39a1.396 1.396 0 0 1-1.694.006L.53 23.322A1.34 1.34 0 0 1 0 22.257V8.743c0-.416.196-.81.531-1.065z" fill="#c2185b"/><path d="M21.484 7.98l-10.458 8.498a2 2 0 0 0-.739 1.552v12.366H11.8l9.684-7.294V7.98z" fill="#c2185b"/></svg>
