<svg id="Слой_1" data-name="Слой 1" xmlns="http://www.w3.org/2000/svg"
     viewBox="0 0 2000 259">
  <defs>
    <style>.cls-1{fill:#ffda00;}</style>
  </defs>
  <title>unit_yellow</title>
  <path class="cls-1"
        d="M311,131.85H279.42V31H54.57V149.89A78.15,78.15,0,0,0,132.71,228h325a78.14,78.14,0,0,0,78.13-78.14V31H311Z"/>
  <polygon class="cls-1"
           points="1462.1 29.86 1462.1 95.47 1545.04 95.47 1545.04 228.4 1861.58 228.4 1861.58 95.47 1945.7 95.47 1945.7 29.86 1462.1 29.86"/>
  <polygon class="cls-1"
           points="875.74 79.58 805 30.31 562.1 30.31 562.1 228.68 789.75 228.68 789.75 181.31 857.75 228.68 1104.68 228.68 1104.68 30.31 875.74 30.31 875.74 79.58"/>
  <path class="cls-1" d="M1130.85,30.23V228.76H1441V30.23Z"/>
</svg>
