<?xml version="1.0" encoding="iso-8859-1"?>
<!-- Generator: Adobe Illustrator 18.0.0, SVG Export Plug-In . SVG Version: 6.00 Build 0)  -->
<!DOCTYPE svg PUBLIC "-//W3C//DTD SVG 1.1//EN" "http://www.w3.org/Graphics/SVG/1.1/DTD/svg11.dtd">
<svg version="1.1" id="Capa_1" xmlns="http://www.w3.org/2000/svg" xmlns:xlink="http://www.w3.org/1999/xlink" x="0px" y="0px"
     viewBox="0 0 163.575 163.575" style="enable-background:new 0 0 163.575 163.575;" xml:space="preserve">
<g>
	<g>
		<rect x="33.99" y="130.136" style="fill:#FDB51C;" width="2.447" height="33.439"/>
    <rect x="36.437" y="130.136" style="fill:#F89722;" width="2.447" height="33.439"/>
    <path style="fill:#FDB51C;" d="M36.437,130.86c0,0,0.006-21.123-22.669-29.624C13.768,101.236,12.738,130.86,36.437,130.86z"/>
    <path style="fill:#FDB51C;" d="M36.437,102.782c0,0,0.006-21.123-22.669-29.624C13.768,73.158,12.738,102.782,36.437,102.782z"/>
    <path style="fill:#FDB51C;" d="M36.437,74.704c0,0,0.006-21.124-22.669-29.625C13.768,45.08,12.738,74.704,36.437,74.704z"/>
    <path style="fill:#FDB51C;" d="M36.437,55.899V15.455C36.437,15.455,15.829,37.094,36.437,55.899z"/>
    <path style="fill:#F89722;" d="M36.437,130.86c0,0-0.007-21.123,22.668-29.624C59.105,101.236,60.136,130.86,36.437,130.86z"/>
    <path style="fill:#F89722;" d="M36.437,102.782c0,0-0.007-21.123,22.668-29.624C59.105,73.158,60.136,102.782,36.437,102.782z"/>
    <path style="fill:#F89722;" d="M36.437,74.704c0,0-0.007-21.124,22.668-29.625C59.105,45.08,60.136,74.704,36.437,74.704z"/>
    <path style="fill:#F89722;" d="M36.437,55.899V15.455C36.437,15.455,57.044,37.094,36.437,55.899z"/>
	</g>
  <g>
		<rect x="79.34" y="114.68" style="fill:#FDB51C;" width="2.447" height="33.439"/>
    <rect x="81.788" y="114.68" style="fill:#F89722;" width="2.447" height="33.439"/>
    <path style="fill:#FDB51C;" d="M81.788,115.404c0,0,0.006-21.123-22.669-29.624C59.119,85.78,58.088,115.404,81.788,115.404z"/>
    <path style="fill:#FDB51C;" d="M81.788,87.326c0,0,0.006-21.123-22.669-29.624C59.119,57.702,58.088,87.326,81.788,87.326z"/>
    <path style="fill:#FDB51C;" d="M81.788,59.248c0,0,0.006-21.124-22.669-29.625C59.119,29.624,58.088,59.248,81.788,59.248z"/>
    <path style="fill:#FDB51C;" d="M81.788,40.443V0C81.788,0,61.179,21.638,81.788,40.443z"/>
    <path style="fill:#F89722;" d="M81.788,115.404c0,0-0.007-21.123,22.669-29.624C104.457,85.78,105.487,115.404,81.788,115.404z"/>
    <path style="fill:#F89722;" d="M81.788,87.326c0,0-0.007-21.123,22.669-29.624C104.457,57.702,105.487,87.326,81.788,87.326z"/>
    <path style="fill:#F89722;" d="M81.788,59.248c0,0-0.007-21.124,22.669-29.625C104.457,29.624,105.487,59.248,81.788,59.248z"/>
    <path style="fill:#F89722;" d="M81.788,40.443V0C81.788,0,102.395,21.638,81.788,40.443z"/>
	</g>
  <g>
		<rect x="124.691" y="130.136" style="fill:#FDB51C;" width="2.447" height="33.439"/>
    <rect x="127.138" y="130.136" style="fill:#F89722;" width="2.447" height="33.439"/>
    <path style="fill:#FDB51C;" d="M127.138,130.86c0,0,0.007-21.123-22.669-29.624C104.469,101.236,103.439,130.86,127.138,130.86z"
    />
    <path style="fill:#FDB51C;" d="M127.138,102.782c0,0,0.007-21.123-22.669-29.624C104.469,73.158,103.439,102.782,127.138,102.782z
			"/>
    <path style="fill:#FDB51C;" d="M127.138,74.704c0,0,0.007-21.124-22.669-29.625C104.469,45.08,103.439,74.704,127.138,74.704z"/>
    <path style="fill:#FDB51C;" d="M127.138,55.899V15.455C127.138,15.455,106.53,37.094,127.138,55.899z"/>
    <path style="fill:#F89722;" d="M127.138,130.86c0,0-0.007-21.123,22.669-29.624C149.807,101.236,150.837,130.86,127.138,130.86z"
    />
    <path style="fill:#F89722;" d="M127.138,102.782c0,0-0.007-21.123,22.669-29.624C149.807,73.158,150.837,102.782,127.138,102.782z
			"/>
    <path style="fill:#F89722;" d="M127.138,74.704c0,0-0.007-21.124,22.669-29.625C149.807,45.08,150.837,74.704,127.138,74.704z"/>
    <path style="fill:#F89722;" d="M127.138,55.899V15.455C127.138,15.455,147.746,37.094,127.138,55.899z"/>
	</g>
</g>
  <g>
</g>
  <g>
</g>
  <g>
</g>
  <g>
</g>
  <g>
</g>
  <g>
</g>
  <g>
</g>
  <g>
</g>
  <g>
</g>
  <g>
</g>
  <g>
</g>
  <g>
</g>
  <g>
</g>
  <g>
</g>
  <g>
</g>
</svg>
