<svg xmlns="http://www.w3.org/2000/svg" xmlns:xlink="http://www.w3.org/1999/xlink" version="1.1" id="Layer_1" x="0px" y="0px" viewBox="0 0 665.7 166.6" style="enable-background:new 0 0 665.7 166.6;" xml:space="preserve">
<style xmlns="http://www.w3.org/2000/svg" type="text/css">
	.st012{fill: #626365;}
</style>
<g>
	<polygon class="st012" points="27.6,0.5 0.2,0.4 2.9,7 3,129.2 0,136.1 27.7,136.1 24.7,129.3 24.7,70.8 24.7,7.3  "/>
	<path class="st012" d="M81.8,114.5L48.9,68l43.5-50.2c7.6-8.6,16.5-14.5,24.6-16l1.1-1.2H76.4l2.9,6.7L24.7,70.8L58,118.1   c12.4,17.6,21.8,29.4,36.9,38.2c13.5,7.8,31.1,12.2,50.6,9.7c0.4-0.8,1-2.2,1.5-3.2c-15.5-2.5-29.8-8.6-39.9-17.9   C99.5,138.1,93.7,132.3,81.8,114.5z"/>
	<polygon class="st012" points="510.2,122.5 510.2,75.3 553.9,75.3 559.6,61.7 510.2,61.7 510.2,14 552.6,14 559.8,16.6 566.5,0.5    485.7,0.5 488.6,7.2 488.6,129.2 485.7,136.1 559.6,136.1 566.6,119.5 559.1,122.5  "/>
	<polygon class="st012" points="658.2,122.5 609.3,122.5 609.3,75.3 609.2,7.6 612.2,0.5 584.8,0.5 587.7,7.2 587.7,129.2    584.8,136.1 658.6,136.1 665.7,119.5  "/>
	<polygon class="st012" points="150.3,123.3 150.3,76.1 193.9,76.1 199.6,62.5 150.3,62.5 150.3,14.8 192.6,14.8 199.8,17.4    206.6,1.3 125.8,1.3 128.6,8 128.6,130 125.8,136.9 199.6,136.9 206.7,120.3 199.1,123.3  "/>
	<path class="st012" d="M322.6,122.8l-35.2-49.8c17.8-3.3,33.6-14.4,33.6-37.1c0-22.6-19.6-36.2-51.8-35.8l-21.9,0.2v0l-23.8,0.3   l2.9,6.7v122l-4.3,7H251l-3.3-7V12.1l0-0.3l0.2-0.3c13.8-1.4,26.6-2.4,35.4,1.5c7.8,3.4,16.4,11.5,16.4,22.9   c0,8.1-2.7,14.2-6.6,18.4c-9.1,9.7-23.3,9.9-38.8,7.5l0.2,0.3c-0.8-0.1-1.2-0.2-1.2-0.2l44.5,63.7c7.8,12.9,23.1,11.4,36.7,10.9   l-0.1-1.6C332.1,134.4,326.7,128.7,322.6,122.8z"/>
	<path class="st012" d="M448.2,7.8V62v3.7v9.9l0,11.4L371.8,0.7l-23.8,0.2l-0.7-0.1l0,0.1l-4.2,0l6.9,7.9v120.7l-3,7h22.3l-3-7V75.6   V62V27.3l54.9,62.4c0,0,0.1,0,0.1-0.1l23.8,27.4c0.9,1.2,1.9,2.2,2.9,3.1v0.2l14.3,16.1l1.9-0.1V7.8l3.1-7h-22.4L448.2,7.8z"/>
</g>
</svg>