<svg width="112" height="42" xmlns="http://www.w3.org/2000/svg"><g fill="#FFF" fill-rule="nonzero"><path d="M7.6 6.5h-7V1.8l19-.1v4.7h-7l.1 18.3h-5z"/><path d="M16.6 16c0-5 4-9.2 9.5-9.2 5.4 0 9.5 4 9.5 9.1 0 5-4 9.2-9.5 9.2-5.4 0-9.5-4-9.5-9.1zm14.1 0c0-2.6-1.9-4.8-4.6-4.8-2.9 0-4.6 2.2-4.5 4.9 0 2.6 1.9 4.8 4.6 4.8 2.8-.1 4.5-2.3 4.5-4.9zM37.1.8h5v12.8l5.8-6.4h6L47.2 14l6.9 10.6h-5.7l-4.6-7.2-1.7 1.8v5.3h-5z"/><path d="M52.7 15.9c0-5 3.5-9.2 8.7-9.2 5.9 0 8.6 4.5 8.6 9.5 0 .4 0 .9-.1 1.3H57.7c.5 2.3 2.1 3.4 4.3 3.4 1.7 0 2.9-.5 4.3-1.8l2.9 2.5c-1.6 2-4 3.3-7.2 3.3-5.4.1-9.3-3.6-9.3-9zm12.4-1.4c-.3-2.2-1.6-3.7-3.7-3.7s-3.4 1.5-3.8 3.7h7.5zM71.5 7h5v2.5c1.1-1.5 2.6-2.8 5.1-2.8 3.8 0 6 2.5 6 6.5v11.4h-5v-9.8c0-2.4-1.1-3.6-3-3.6s-3.1 1.2-3.1 3.6v9.8h-5V7zM90.3 1.6h8.9c7.2 0 12.2 4.9 12.2 11.4s-4.9 11.5-12.2 11.5h-8.9V1.6zm9 18.4c4.1 0 6.9-2.8 6.9-6.9 0-4.1-2.8-6.9-6.9-6.9h-3.9V20h3.9z"/><g><path d="M26.6 30.8h5.6v1.1h-4.3v3.5h3.9v1.1h-3.9v4.7h-1.3zM34.1 30.9c.7-.1 1.7-.2 2.6-.2 1.4 0 2.4.3 3 .8.5.5.8 1.2.8 2 0 1.4-.9 2.3-2 2.7.8.3 1.3 1 1.5 2.1.3 1.5.6 2.5.8 2.9h-1.4c-.2-.3-.4-1.2-.7-2.5-.3-1.4-.9-2-2.1-2h-1.3v4.5H34l.1-10.3zm1.4 4.7h1.4c1.4 0 2.4-.8 2.4-2 0-1.3-1-1.9-2.4-1.9-.7 0-1.1.1-1.3.1l-.1 3.8zM44.2 37.9l-1.1 3.3h-1.4l3.5-10.4h1.6l3.6 10.4H49l-1.1-3.3h-3.7zm3.5-1.1l-1-3c-.2-.7-.4-1.3-.5-1.9-.2.6-.3 1.3-.5 1.9l-1 3h3zM60.8 36.6c-.1-1.5-.2-3.2-.2-4.5-.4 1.2-.8 2.5-1.3 4l-1.8 5.1h-1l-1.7-5c-.5-1.5-.9-2.8-1.2-4.1 0 1.3-.1 3.1-.2 4.6l-.4 4.5h-1.3l.7-10.4h1.7l1.8 5c.4 1.3.8 2.4 1.1 3.5.3-1.1.6-2.2 1.1-3.5l1.9-5.1h1.7l.7 10.4h-1.3l-.3-4.5zM69.8 36.2h-4.1V40h4.5v1.1h-5.9V30.7h5.6v1.1h-4.3v3.3h4.1zM73.9 41.1l-2.7-10.4h1.4l1.2 5.3c.3 1.3.6 2.6.8 3.6.2-1 .5-2.3.8-3.6l1.4-5.3h1.4l1.3 5.3c.3 1.2.6 2.5.7 3.6.2-1.1.5-2.3.8-3.6l1.4-5.3h1.4L81 41.1h-1.4l-1.3-5.4c-.3-1.3-.5-2.4-.7-3.4-.2 1-.4 2.1-.8 3.4l-1.5 5.4h-1.4zM94.2 35.8c0 3.6-2.2 5.5-4.8 5.5-2.8 0-4.7-2.1-4.7-5.3 0-3.3 2.1-5.5 4.8-5.5 2.8 0 4.7 2.2 4.7 5.3zm-8.1.2c0 2.2 1.2 4.2 3.3 4.2 2.1 0 3.3-2 3.3-4.3 0-2.1-1.1-4.2-3.3-4.2-2.2-.1-3.3 2-3.3 4.3zM95.9 30.8c.7-.1 1.7-.2 2.6-.2 1.4 0 2.4.3 3 .8.5.5.8 1.2.8 2 0 1.4-.9 2.3-2 2.7.8.3 1.3 1 1.5 2.1.3 1.5.6 2.5.8 2.9h-1.4c-.2-.3-.4-1.2-.7-2.5-.3-1.4-.9-2-2.1-2h-1.3v4.5h-1.3l.1-10.3zm1.4 4.8h1.4c1.4 0 2.4-.8 2.4-2 0-1.3-1-1.9-2.4-1.9-.7 0-1.1.1-1.3.1l-.1 3.8zM104.2 30.6h1.3v5c.3-.4.6-.8.8-1.1l3.2-3.9h1.7l-3.8 4.4 4.1 6h-1.6l-3.4-5.1-1 1.1v4h-1.3V30.6z"/></g></g></svg>
